<svg viewBox="0 0 1720 880" xmlns="http://www.w3.org/2000/svg" font-family="'Pretendard','Noto Sans KR','Malgun Gothic','Apple SD Gothic Neo',sans-serif">
  <defs>
    <marker id="arrow" viewBox="0 0 10 10" markerWidth="7" markerHeight="7" refX="6.5" refY="5" orient="auto" markerUnits="strokeWidth"><path d="M0,0 L10,5 L0,10 z" fill="#5b6470"/></marker>
    <marker id="arrowGreen" viewBox="0 0 10 10" markerWidth="7" markerHeight="7" refX="6.5" refY="5" orient="auto" markerUnits="strokeWidth"><path d="M0,0 L10,5 L0,10 z" fill="#2D9C6F"/></marker>
    <marker id="arrowTeal" viewBox="0 0 10 10" markerWidth="7" markerHeight="7" refX="6.5" refY="5" orient="auto" markerUnits="strokeWidth"><path d="M0,0 L10,5 L0,10 z" fill="#0E9F8E"/></marker>
    <marker id="arrowRed" viewBox="0 0 10 10" markerWidth="7" markerHeight="7" refX="6.5" refY="5" orient="auto" markerUnits="strokeWidth"><path d="M0,0 L10,5 L0,10 z" fill="#FF5A5F"/></marker>
    <marker id="arrowMon" viewBox="0 0 10 10" markerWidth="7" markerHeight="7" refX="6.5" refY="5" orient="auto" markerUnits="strokeWidth"><path d="M0,0 L10,5 L0,10 z" fill="#7E57C2"/></marker>
    <filter id="shadow" x="-20%" y="-20%" width="140%" height="140%"><feDropShadow dx="0" dy="2" stdDeviation="3" flood-color="#1c2733" flood-opacity="0.18"/></filter>
  </defs>

  <rect x="0" y="0" width="1720" height="880" fill="#FBFCFE"/>

  <text x="860" y="44" text-anchor="middle" font-size="26" font-weight="700" fill="#1c2733">Multi-Tenant FastAPI Gateway · CBAM API 아키텍처</text>
  <text x="860" y="69" text-anchor="middle" font-size="13" fill="#7a8694">X-Tenant-ID 헤더 → Middleware Chain → Depends 체인 → 테넌트별 read/write 엔진 자동 라우팅 (Replica fallback 포함)</text>

  <!-- Zone bands -->
  <rect x="24"   y="90" width="226" height="716" rx="16" fill="#EAF4FB" stroke="#B6D9F0" stroke-width="1.5"/>
  <rect x="268"  y="90" width="832" height="716" rx="16" fill="#EAF7EF" stroke="#BBE3CB" stroke-width="1.5"/>
  <rect x="1118" y="90" width="240" height="716" rx="16" fill="#F1ECFA" stroke="#CDBCEC" stroke-width="1.5"/>
  <rect x="1376" y="90" width="300" height="716" rx="16" fill="#FBF1E9" stroke="#F0D6BE" stroke-width="1.5"/>

  <text x="137"  y="122" text-anchor="middle" font-size="14.5" font-weight="700" fill="#2E6B96">클라이언트 · Client</text>
  <text x="684"  y="122" text-anchor="middle" font-size="14.5" font-weight="700" fill="#2C8C5A">FastAPI Gateway · Multi-Tenant API</text>
  <text x="1238" y="122" text-anchor="middle" font-size="14.5" font-weight="700" fill="#6A4D9E">Master DB · Control Plane</text>
  <text x="1526" y="122" text-anchor="middle" font-size="14.5" font-weight="700" fill="#B5722A">Tenant DBs · Data Plane</text>

  <!-- ===== Z1 Client ===== -->
  <g filter="url(#shadow)"><rect x="44" y="172" width="186" height="100" rx="12" fill="#41B883"/></g>
  <g transform="translate(123,184)" stroke="#fff" stroke-width="1.8" fill="none" stroke-linejoin="round"><path d="M2,4 L11,20 L20,4"/><path d="M7,4 L11,12 L15,4"/></g>
  <text x="137" y="234" text-anchor="middle" font-size="14" font-weight="700" fill="#fff">CBAM 앱</text>
  <text x="137" y="252" text-anchor="middle" font-size="10" fill="#dcf0e3">Vue (사용자)</text>

  <g filter="url(#shadow)"><rect x="44" y="292" width="186" height="100" rx="12" fill="#357C5B"/></g>
  <g transform="translate(125,304)" stroke="#fff" stroke-width="1.6" fill="none"><circle cx="11" cy="9" r="4"/><path d="M3.5,21 a8.5,7.5 0 0 1 15,0 z"/></g>
  <text x="137" y="354" text-anchor="middle" font-size="14" font-weight="700" fill="#fff">관리자 페이지</text>
  <text x="137" y="372" text-anchor="middle" font-size="10" fill="#d6e8de">Vue (관리자)</text>

  <rect x="60" y="420" width="154" height="22" rx="11" fill="#ffffff" stroke="#9CC9E8" stroke-width="1.1"/>
  <text x="137" y="435" text-anchor="middle" font-size="10" font-weight="600" fill="#2E6B96">X-Tenant-ID + Bearer JWT</text>

  <!-- ===== Z2 FastAPI Gateway ===== -->

  <!-- Middleware Chain header band -->
  <rect x="284" y="148" width="800" height="26" rx="6" fill="#ffffff" stroke="#BBE3CB" stroke-width="1.2"/>
  <text x="684" y="166" text-anchor="middle" font-size="11.5" font-weight="700" fill="#2C8C5A">Middleware Chain · 요청 컨텍스트 구축</text>

  <!-- CORS -->
  <g filter="url(#shadow)"><rect x="294" y="186" width="244" height="64" rx="10" fill="#7E8FA6"/></g>
  <text x="416" y="212" text-anchor="middle" font-size="13" font-weight="700" fill="#fff">CORS Middleware</text>
  <text x="416" y="230" text-anchor="middle" font-size="10" fill="#dde2eb">allow_origins · methods · headers</text>

  <!-- RateLimit -->
  <g filter="url(#shadow)"><rect x="546" y="186" width="244" height="64" rx="10" fill="#5A6B82"/></g>
  <text x="668" y="212" text-anchor="middle" font-size="13" font-weight="700" fill="#fff">RateLimit Middleware</text>
  <text x="668" y="230" text-anchor="middle" font-size="10" fill="#d4dbe6">requests_per_minute (테넌트별)</text>

  <!-- Tenant Middleware -->
  <g filter="url(#shadow)"><rect x="798" y="186" width="276" height="64" rx="10" fill="#3D5470"/></g>
  <text x="936" y="212" text-anchor="middle" font-size="13" font-weight="700" fill="#fff">Tenant Middleware</text>
  <text x="936" y="230" text-anchor="middle" font-size="10" fill="#ced8e6">X-Tenant-ID → request.state.tenant_id</text>

  <!-- Router + Depends band header -->
  <rect x="284" y="276" width="800" height="26" rx="6" fill="#ffffff" stroke="#BBE3CB" stroke-width="1.2"/>
  <text x="684" y="294" text-anchor="middle" font-size="11.5" font-weight="700" fill="#2C8C5A">Router + Depends Chain · 핸들러 호출과 DI 주입</text>

  <!-- FastAPI Router box -->
  <g filter="url(#shadow)"><rect x="294" y="314" width="376" height="208" rx="13" fill="#0E9F8E"/></g>
  <text x="482" y="338" text-anchor="middle" font-size="15" font-weight="700" fill="#fff">FastAPI Router</text>
  <text x="482" y="354" text-anchor="middle" font-size="10" fill="#d4f1ed">/cbam · /admin · /auth · /sensors · /readings</text>

  <rect x="308" y="368" width="348" height="142" rx="8" fill="#ffffff" fill-opacity="0.13" stroke="#ffffff" stroke-opacity="0.3"/>
  <text x="318" y="386" font-size="10.5" font-weight="600" fill="#fff">@router.post("/cbam/items")</text>
  <text x="318" y="403" font-size="10" fill="#d4f1ed">async def create_item(</text>
  <text x="324" y="420" font-size="10" fill="#d4f1ed">    payload: ItemCreate,</text>
  <text x="324" y="437" font-size="10" fill="#d4f1ed">    session = Depends(get_db_session),</text>
  <text x="324" y="454" font-size="10" fill="#d4f1ed">    _auth   = Depends(require_permission("cbam","write")),</text>
  <text x="318" y="471" font-size="10" fill="#d4f1ed">):</text>
  <text x="482" y="493" text-anchor="middle" font-size="10" font-weight="600" fill="#a3e5d9">pydantic 입력 검증 · OpenAPI 자동 생성 · async/await</text>

  <!-- Depends Chain box -->
  <g filter="url(#shadow)"><rect x="690" y="314" width="394" height="208" rx="13" fill="#44619E"/></g>
  <text x="887" y="338" text-anchor="middle" font-size="15" font-weight="700" fill="#fff">Depends Chain · DI</text>
  <text x="887" y="354" text-anchor="middle" font-size="10" fill="#d8def0">request.state → tenant 컨텍스트 자동 주입</text>

  <rect x="704" y="368" width="184" height="36" rx="6" fill="#ffffff" fill-opacity="0.15"/>
  <text x="796" y="384" text-anchor="middle" font-size="10.5" font-weight="600" fill="#fff">get_tenant_id(request)</text>
  <text x="796" y="397" text-anchor="middle" font-size="9" fill="#cfd6ec">→ request.state.tenant_id</text>

  <rect x="894" y="368" width="184" height="36" rx="6" fill="#ffffff" fill-opacity="0.15" stroke="#FF5A5F" stroke-width="1.4"/>
  <text x="986" y="384" text-anchor="middle" font-size="10.5" font-weight="600" fill="#fff">Casbin Enforcer</text>
  <text x="986" y="397" text-anchor="middle" font-size="9" fill="#cfd6ec">require_permission(res, act)</text>

  <rect x="704" y="410" width="184" height="36" rx="6" fill="#ffffff" fill-opacity="0.15"/>
  <text x="796" y="426" text-anchor="middle" font-size="10.5" font-weight="600" fill="#fff">SessionManager</text>
  <text x="796" y="439" text-anchor="middle" font-size="9" fill="#cfd6ec">get_session / get_read_session</text>

  <rect x="894" y="410" width="184" height="36" rx="6" fill="#ffffff" fill-opacity="0.15"/>
  <text x="986" y="426" text-anchor="middle" font-size="10.5" font-weight="600" fill="#fff">EngineRegistry</text>
  <text x="986" y="439" text-anchor="middle" font-size="9" fill="#cfd6ec">lazy create · cache (per tenant)</text>

  <rect x="704" y="456" width="374" height="56" rx="6" fill="#ffffff" fill-opacity="0.13"/>
  <text x="891" y="474" text-anchor="middle" font-size="10.5" font-weight="600" fill="#fff">get_db_session → Primary 라우팅 + 자동 commit/rollback</text>
  <text x="891" y="490" text-anchor="middle" font-size="10.5" font-weight="600" fill="#fff">get_read_session → Replica 라우팅 (실패 시 write 엔진 fallback)</text>
  <text x="891" y="505" text-anchor="middle" font-size="9" fill="#cfd6ec">fallback 발생 시 한 번만 Slack 알림 발송</text>

  <!-- Background Tasks band header -->
  <rect x="284" y="546" width="800" height="26" rx="6" fill="#ffffff" stroke="#BBE3CB" stroke-width="1.2"/>
  <text x="684" y="564" text-anchor="middle" font-size="11.5" font-weight="700" fill="#2C8C5A">Background Tasks · Lifespan-managed</text>

  <g filter="url(#shadow)"><rect x="294" y="586" width="252" height="78" rx="11" fill="#7E57C2"/></g>
  <text x="420" y="610" text-anchor="middle" font-size="13" font-weight="700" fill="#fff">OfflineMonitor</text>
  <text x="420" y="627" text-anchor="middle" font-size="10" fill="#e7dff7">센서 오프라인 감지</text>
  <text x="420" y="643" text-anchor="middle" font-size="9.5" fill="#e1d4f7">interval = 60s</text>

  <g filter="url(#shadow)"><rect x="556" y="586" width="252" height="78" rx="11" fill="#7E57C2"/></g>
  <text x="682" y="610" text-anchor="middle" font-size="13" font-weight="700" fill="#fff">PeakDemandMonitor</text>
  <text x="682" y="627" text-anchor="middle" font-size="10" fill="#e7dff7">피크 전력 임계 감시</text>
  <text x="682" y="643" text-anchor="middle" font-size="9.5" fill="#e1d4f7">interval = 300s</text>

  <g filter="url(#shadow)"><rect x="818" y="586" width="252" height="78" rx="11" fill="#7E57C2"/></g>
  <text x="944" y="610" text-anchor="middle" font-size="13" font-weight="700" fill="#fff">UsageTracker</text>
  <text x="944" y="627" text-anchor="middle" font-size="10" fill="#e7dff7">API 사용량 집계 → Master DB</text>
  <text x="944" y="643" text-anchor="middle" font-size="9.5" fill="#e1d4f7">interval = 60s</text>

  <!-- Lifespan note -->
  <rect x="318" y="685" width="732" height="32" rx="7" fill="#ffffff" stroke="#BBE3CB" stroke-width="1.2"/>
  <text x="684" y="705" text-anchor="middle" font-size="10.5" font-weight="600" fill="#2C8C5A">@asynccontextmanager lifespan · 부트스트랩 (TenantCache · Casbin 정책 · yoyo migrations · 테넌트 프로비저닝) + 백그라운드 시작/정리</text>

  <!-- ===== Z3 Master DB ===== -->
  <g filter="url(#shadow)"><rect x="1138" y="172" width="200" height="160" rx="12" fill="#6A5A7E"/></g>
  <g transform="translate(1227,184)" stroke="#fff" stroke-width="1.5" fill="none" stroke-linecap="round"><ellipse cx="9" cy="5" rx="7" ry="2.6"/><path d="M2,5 v10 a7,2.6 0 0 0 14,0 v-10"/><path d="M2,10 a7,2.6 0 0 0 14,0"/></g>
  <text x="1238" y="232" text-anchor="middle" font-size="14" font-weight="700" fill="#fff">Master DB</text>
  <text x="1238" y="248" text-anchor="middle" font-size="10" fill="#e2dceb">PostgreSQL</text>

  <rect x="1150" y="260" width="176" height="20" rx="6" fill="#ffffff" fill-opacity="0.16"/>
  <text x="1238" y="274" text-anchor="middle" font-size="9.5" font-weight="600" fill="#fff">TenantCache 메타정보</text>
  <rect x="1150" y="284" width="176" height="20" rx="6" fill="#ffffff" fill-opacity="0.16"/>
  <text x="1238" y="298" text-anchor="middle" font-size="9.5" font-weight="600" fill="#fff">Casbin RBAC 정책</text>
  <rect x="1150" y="308" width="176" height="20" rx="6" fill="#ffffff" fill-opacity="0.16"/>
  <text x="1238" y="322" text-anchor="middle" font-size="9.5" font-weight="600" fill="#fff">User · API Key (bcrypt)</text>

  <rect x="1138" y="350" width="200" height="38" rx="7" fill="#ffffff" stroke="#CDBCEC" stroke-width="1.2"/>
  <text x="1238" y="367" text-anchor="middle" font-size="9.5" font-weight="700" fill="#6A4D9E">yoyo SQL Migrations</text>
  <text x="1238" y="380" text-anchor="middle" font-size="9" fill="#6A4D9E">lifespan 부트스트랩 시 자동 적용</text>

  <rect x="1138" y="404" width="200" height="92" rx="11" fill="#ffffff" stroke="#CDBCEC" stroke-width="1.2"/>
  <text x="1238" y="426" text-anchor="middle" font-size="12" font-weight="700" fill="#6A4D9E">관리 데이터 저장</text>
  <text x="1238" y="446" text-anchor="middle" font-size="9.5" fill="#5a4880">· UsageTracker 집계</text>
  <text x="1238" y="463" text-anchor="middle" font-size="9.5" fill="#5a4880">· Audit Log</text>
  <text x="1238" y="480" text-anchor="middle" font-size="9.5" fill="#5a4880">· Replica Fallback Alert</text>

  <!-- ===== Z4 Tenant DBs ===== -->

  <!-- Tenant A Primary -->
  <g filter="url(#shadow)"><rect x="1396" y="172" width="260" height="82" rx="11" fill="#2D9C6F"/></g>
  <g transform="translate(1408,186)" stroke="#fff" stroke-width="1.4" fill="none" stroke-linecap="round"><ellipse cx="9" cy="5" rx="7" ry="2.6"/><path d="M2,5 v10 a7,2.6 0 0 0 14,0 v-10"/><path d="M2,10 a7,2.6 0 0 0 14,0"/></g>
  <text x="1450" y="200" font-size="13" font-weight="700" fill="#fff">Tenant A Primary</text>
  <text x="1450" y="216" font-size="10" fill="#d8f1e6">write · TimescaleDB</text>
  <rect x="1410" y="222" width="232" height="22" rx="6" fill="#ffffff" fill-opacity="0.18"/>
  <text x="1526" y="238" text-anchor="middle" font-size="9.5" font-weight="600" fill="#fff">get_db_session (Primary)</text>

  <!-- Tenant A Replica -->
  <g filter="url(#shadow)"><rect x="1396" y="264" width="260" height="82" rx="11" fill="#0E9F8E"/></g>
  <g transform="translate(1408,278)" stroke="#fff" stroke-width="1.4" fill="none" stroke-linecap="round"><ellipse cx="9" cy="5" rx="7" ry="2.6"/><path d="M2,5 v10 a7,2.6 0 0 0 14,0 v-10"/><path d="M2,10 a7,2.6 0 0 0 14,0"/></g>
  <text x="1450" y="292" font-size="13" font-weight="700" fill="#fff">Tenant A Replica</text>
  <text x="1450" y="308" font-size="10" fill="#d6f3ee">read · Streaming Replica</text>
  <rect x="1410" y="314" width="232" height="22" rx="6" fill="#ffffff" fill-opacity="0.18"/>
  <text x="1526" y="330" text-anchor="middle" font-size="9.5" font-weight="600" fill="#fff">get_read_session (Replica)</text>

  <!-- Tenant B Primary -->
  <g filter="url(#shadow)"><rect x="1396" y="372" width="260" height="74" rx="11" fill="#2D9C6F" fill-opacity="0.86"/></g>
  <text x="1526" y="402" text-anchor="middle" font-size="13" font-weight="700" fill="#fff">Tenant B Primary</text>
  <text x="1526" y="420" text-anchor="middle" font-size="10" fill="#d8f1e6">write · TimescaleDB</text>

  <!-- Tenant B Replica -->
  <g filter="url(#shadow)"><rect x="1396" y="458" width="260" height="74" rx="11" fill="#0E9F8E" fill-opacity="0.86"/></g>
  <text x="1526" y="488" text-anchor="middle" font-size="13" font-weight="700" fill="#fff">Tenant B Replica</text>
  <text x="1526" y="506" text-anchor="middle" font-size="10" fill="#d6f3ee">read · Streaming Replica</text>

  <!-- Tenant N ... -->
  <rect x="1396" y="552" width="260" height="42" rx="11" fill="#ffffff" stroke="#F0D6BE" stroke-width="1.4" stroke-dasharray="5 4"/>
  <text x="1526" y="578" text-anchor="middle" font-size="11" font-weight="700" fill="#B5722A">Tenant N · · · 동적 확장</text>

  <!-- ===== Arrows ===== -->

  <!-- Client → CORS (HTTP request) -->
  <path d="M230,222 C258,222 274,218 290,218" stroke="#5b6470" stroke-width="2.2" fill="none" marker-end="url(#arrow)"/>
  <text x="260" y="210" text-anchor="middle" font-size="9.5" font-weight="600" fill="#56606c">HTTPS Request</text>

  <!-- Middleware chain horizontal -->
  <path d="M540,218 L544,218" stroke="#5b6470" stroke-width="2.2" marker-end="url(#arrow)"/>
  <path d="M792,218 L796,218" stroke="#5b6470" stroke-width="2.2" marker-end="url(#arrow)"/>

  <!-- Tenant Middleware → Router (downward) -->
  <path d="M936,252 C936,270 482,278 482,314" stroke="#5b6470" stroke-width="2.2" fill="none" marker-end="url(#arrow)"/>
  <text x="700" y="270" text-anchor="middle" font-size="9.5" font-weight="600" fill="#56606c">tenant 컨텍스트 주입된 요청 → 핸들러 dispatch</text>

  <!-- Router → Depends (sideways DI resolution) -->
  <path d="M670,418 L688,418" stroke="#5b6470" stroke-width="2.2" marker-end="url(#arrow)"/>
  <text x="680" y="408" text-anchor="middle" font-size="9" font-weight="600" fill="#56606c">DI</text>

  <!-- Master DB ← TenantCache load (purple dashed) -->
  <path d="M1078,398 C1108,398 1124,274 1138,274" stroke="#7E57C2" stroke-width="1.9" stroke-dasharray="6 4" fill="none" marker-end="url(#arrowMon)"/>
  <text x="1106" y="346" text-anchor="middle" font-size="9" font-weight="600" fill="#6A4399">tenant cache</text>

  <!-- Master DB ← Casbin policy load (purple dashed) -->
  <path d="M1078,388 C1102,388 1118,298 1138,298" stroke="#7E57C2" stroke-width="1.9" stroke-dasharray="6 4" fill="none" marker-end="url(#arrowMon)"/>
  <text x="1102" y="372" text-anchor="middle" font-size="9" font-weight="600" fill="#6A4399">policy load</text>

  <!-- EngineRegistry → Tenant A Primary (write) -->
  <path d="M1078,428 C1230,408 1320,220 1396,212" stroke="#2D9C6F" stroke-width="2.6" fill="none" marker-end="url(#arrowGreen)"/>
  <text x="1262" y="290" text-anchor="middle" font-size="10.5" font-weight="700" fill="#2D9C6F">write (Primary)</text>

  <!-- EngineRegistry → Tenant A Replica (read) -->
  <path d="M1078,478 C1230,478 1320,304 1396,304" stroke="#0E9F8E" stroke-width="2.6" fill="none" marker-end="url(#arrowTeal)"/>
  <text x="1262" y="410" text-anchor="middle" font-size="10.5" font-weight="700" fill="#0B8576">read (Replica)</text>

  <!-- Replica fallback (red dashed) -->
  <path d="M1526,346 C1572,366 1596,232 1572,212" stroke="#FF5A5F" stroke-width="2.2" stroke-dasharray="5 4" fill="none" marker-end="url(#arrowRed)"/>
  <text x="1672" y="276" text-anchor="middle" font-size="10" font-weight="700" fill="#D63A40">Replica</text>
  <text x="1672" y="290" text-anchor="middle" font-size="10" font-weight="700" fill="#D63A40">fallback</text>

  <!-- Router → Response back to Client (dashed gray) -->
  <path d="M294,400 C200,400 200,234 230,234" stroke="#5b6470" stroke-width="1.8" fill="none" stroke-dasharray="4 3" marker-end="url(#arrow)"/>
  <text x="206" y="328" text-anchor="middle" font-size="9.5" font-weight="600" fill="#56606c">JSON</text>
  <text x="206" y="342" text-anchor="middle" font-size="9.5" font-weight="600" fill="#56606c">Response</text>

  <!-- UsageTracker → Master DB (purple dashed) -->
  <path d="M1070,624 C1112,624 1130,460 1138,450" stroke="#7E57C2" stroke-width="2" stroke-dasharray="6 4" fill="none" marker-end="url(#arrowMon)"/>
  <text x="1132" y="528" text-anchor="middle" font-size="9" font-weight="600" fill="#6A4399">usage / audit write</text>

  <!-- OfflineMonitor + PeakDemandMonitor → Tenant DBs (probe) -->
  <path d="M548,640 C580,720 1340,720 1396,574" stroke="#7E57C2" stroke-width="1.8" stroke-dasharray="5 4" fill="none" marker-end="url(#arrowMon)"/>
  <text x="970" y="740" text-anchor="middle" font-size="9.5" font-weight="600" fill="#6A4399">probe tenant DBs (offline · peak demand)</text>

  <!-- ===== Legend ===== -->
  <line x1="270" y1="838" x2="308" y2="838" stroke="#5b6470" stroke-width="2.2" marker-end="url(#arrow)"/>
  <text x="315" y="842" font-size="11" fill="#56606c">HTTP Request / Response</text>
  <line x1="500" y1="838" x2="538" y2="838" stroke="#0E9F8E" stroke-width="2.4" marker-end="url(#arrowTeal)"/>
  <text x="545" y="842" font-size="11" fill="#0B8576">Read (Replica)</text>
  <line x1="676" y1="838" x2="714" y2="838" stroke="#2D9C6F" stroke-width="2.4" marker-end="url(#arrowGreen)"/>
  <text x="721" y="842" font-size="11" fill="#2D9C6F">Write (Primary)</text>
  <line x1="860" y1="838" x2="898" y2="838" stroke="#FF5A5F" stroke-width="2.2" stroke-dasharray="5 4" marker-end="url(#arrowRed)"/>
  <text x="905" y="842" font-size="11" fill="#D63A40">Replica fallback</text>
  <line x1="1056" y1="838" x2="1094" y2="838" stroke="#7E57C2" stroke-width="2" stroke-dasharray="6 4" marker-end="url(#arrowMon)"/>
  <text x="1101" y="842" font-size="11" fill="#6A4399">Control · Background</text>
</svg>
