<svg viewBox="0 0 1480 820" xmlns="http://www.w3.org/2000/svg" font-family="'Pretendard','Noto Sans KR','Malgun Gothic','Apple SD Gothic Neo',sans-serif">
  <defs>
    <marker id="arrow" viewBox="0 0 10 10" markerWidth="7" markerHeight="7" refX="6.5" refY="5" orient="auto" markerUnits="strokeWidth">
      <path d="M0,0 L10,5 L0,10 z" fill="#5b6470"/>
    </marker>
    <marker id="arrowGreen" viewBox="0 0 10 10" markerWidth="7" markerHeight="7" refX="6.5" refY="5" orient="auto" markerUnits="strokeWidth">
      <path d="M0,0 L10,5 L0,10 z" fill="#2D9C6F"/>
    </marker>
    <marker id="arrowAccent" viewBox="0 0 10 10" markerWidth="7" markerHeight="7" refX="6.5" refY="5" orient="auto" markerUnits="strokeWidth">
      <path d="M0,0 L10,5 L0,10 z" fill="#E8743B"/>
    </marker>
    <marker id="arrowMon" viewBox="0 0 10 10" markerWidth="7" markerHeight="7" refX="6.5" refY="5" orient="auto" markerUnits="strokeWidth">
      <path d="M0,0 L10,5 L0,10 z" fill="#7E57C2"/>
    </marker>
    <filter id="shadow" x="-20%" y="-20%" width="140%" height="140%">
      <feDropShadow dx="0" dy="2" stdDeviation="3" flood-color="#1c2733" flood-opacity="0.18"/>
    </filter>
  </defs>

  <rect x="0" y="0" width="1480" height="820" fill="#FBFCFE"/>

  <!-- Title -->
  <text x="740" y="44" text-anchor="middle" font-size="27" font-weight="700" fill="#1c2733">스트리밍 복제 기반 IoT 데이터 · 모니터링 아키텍처</text>
  <text x="740" y="70" text-anchor="middle" font-size="13.5" fill="#7a8694">TimescaleDB Streaming Replication + Grafana Alloy / VictoriaMetrics Monitoring</text>

  <!-- Zone bands -->
  <rect x="24"   y="92" width="300" height="648" rx="16" fill="#EAF4FB" stroke="#B6D9F0" stroke-width="1.5"/>
  <rect x="344"  y="92" width="300" height="648" rx="16" fill="#F1ECFA" stroke="#CDBCEC" stroke-width="1.5"/>
  <rect x="664"  y="92" width="470" height="648" rx="16" fill="#EAF7EF" stroke="#BBE3CB" stroke-width="1.5"/>
  <rect x="1154" y="92" width="302" height="648" rx="16" fill="#FBF1E9" stroke="#F0D6BE" stroke-width="1.5"/>

  <!-- Zone titles -->
  <text x="174"  y="124" text-anchor="middle" font-size="15" font-weight="700" fill="#2E6B96">현장 · On-Premise / Edge</text>
  <text x="494"  y="124" text-anchor="middle" font-size="15" font-weight="700" fill="#6A4D9E">클라우드 · Cloud</text>
  <text x="899"  y="124" text-anchor="middle" font-size="15" font-weight="700" fill="#2C8C5A">사내 내부 서버 · On-Prem Internal</text>
  <text x="1305" y="124" text-anchor="middle" font-size="15" font-weight="700" fill="#B5722A">사용자 · 관리자 · User / Admin</text>

  <!-- ============ Zone 1: Field / Edge ============ -->
  <g filter="url(#shadow)"><rect x="46" y="176" width="126" height="96" rx="11" fill="#2E86C1"/></g>
  <g transform="translate(97,190)" stroke="#fff" stroke-width="1.8" fill="none" stroke-linecap="round">
    <circle cx="12" cy="19" r="2" fill="#fff" stroke="none"/>
    <path d="M6.5,15 a8,8 0 0 1 11,0"/>
    <path d="M3,11.5 a12.5,12.5 0 0 1 18,0"/>
  </g>
  <text x="109" y="242" text-anchor="middle" font-size="14.5" font-weight="700" fill="#fff">IoT 센서</text>
  <text x="109" y="261" text-anchor="middle" font-size="11" fill="#dcebf7">Sensors</text>

  <g filter="url(#shadow)"><rect x="192" y="176" width="110" height="96" rx="11" fill="#1F6FB0"/></g>
  <g transform="translate(235,190)" stroke="#fff" stroke-width="1.8" fill="none" stroke-linecap="round">
    <rect x="7" y="7" width="10" height="10" rx="1.5"/>
    <line x1="10" y1="3.5" x2="10" y2="7"/><line x1="14" y1="3.5" x2="14" y2="7"/>
    <line x1="10" y1="17" x2="10" y2="20.5"/><line x1="14" y1="17" x2="14" y2="20.5"/>
    <line x1="3.5" y1="10" x2="7" y2="10"/><line x1="3.5" y1="14" x2="7" y2="14"/>
    <line x1="17" y1="10" x2="20.5" y2="10"/><line x1="17" y1="14" x2="20.5" y2="14"/>
  </g>
  <text x="247" y="242" text-anchor="middle" font-size="14.5" font-weight="700" fill="#fff">PLC 장비</text>
  <text x="247" y="261" text-anchor="middle" font-size="11" fill="#dcebf7">Controllers</text>

  <!-- Protocol label -->
  <rect x="116" y="322" width="116" height="24" rx="12" fill="#ffffff" stroke="#9CC9E8" stroke-width="1.2"/>
  <text x="174" y="338" text-anchor="middle" font-size="10.5" font-weight="600" fill="#2E6B96">RS-232 · 485 / LAN</text>

  <!-- Edge Server -->
  <g filter="url(#shadow)"><rect x="44" y="400" width="260" height="140" rx="12" fill="#117A8B"/></g>
  <g transform="translate(161,413)" stroke="#fff" stroke-width="1.8" fill="none" stroke-linecap="round">
    <rect x="3" y="4" width="20" height="7" rx="1.5"/>
    <rect x="3" y="14" width="20" height="7" rx="1.5"/>
    <circle cx="7" cy="7.5" r="1.1" fill="#fff" stroke="none"/>
    <circle cx="7" cy="17.5" r="1.1" fill="#fff" stroke="none"/>
  </g>
  <text x="174" y="460" text-anchor="middle" font-size="15.5" font-weight="700" fill="#fff">현장 엣지 서버</text>
  <text x="174" y="478" text-anchor="middle" font-size="10.5" fill="#d6eef1">Edge Server</text>
  <text x="174" y="496" text-anchor="middle" font-size="11" font-weight="600" fill="#bfe9ee">수집 · OPC UA 변환</text>
  <rect x="72" y="506" width="204" height="24" rx="7" fill="#7E57C2" stroke="#FF5A5F" stroke-width="1.8"/>
  <text x="174" y="522" text-anchor="middle" font-size="10" font-weight="600" fill="#fff">◆ Grafana Alloy · Prometheus</text>

  <!-- ============ Zone 2: Cloud ============ -->
  <!-- PgBouncer wrapper containing TimescaleDB Primary -->
  <g filter="url(#shadow)"><rect x="358" y="300" width="272" height="200" rx="14" fill="#EAF1F6" stroke="#FF5A5F" stroke-width="2.6"/></g>
  <rect x="584" y="291" width="44" height="18" rx="9" fill="#FF5A5F"/>
  <text x="606" y="304" text-anchor="middle" font-size="9" font-weight="700" fill="#fff">NEW</text>
  <g transform="translate(372,310)" stroke="#3D6E8F" stroke-width="1.7" fill="none" stroke-linecap="round" stroke-linejoin="round">
    <line x1="2" y1="3" x2="8" y2="3"/><line x1="2" y1="10" x2="8" y2="10"/><line x1="2" y1="17" x2="8" y2="17"/>
    <path d="M8,3 C13,3 13,10 18,10"/>
    <path d="M8,10 H18"/>
    <path d="M8,17 C13,17 13,10 18,10"/>
    <circle cx="18" cy="10" r="1.6" fill="#3D6E8F" stroke="none"/>
  </g>
  <text x="400" y="320" font-size="13" font-weight="700" fill="#2C5572">PgBouncer</text>
  <text x="400" y="335" font-size="9.5" fill="#5a7892">연결 풀링 · Connection Pool</text>

  <!-- nested TimescaleDB Primary -->
  <g filter="url(#shadow)"><rect x="378" y="346" width="232" height="138" rx="11" fill="#2D9C6F"/></g>
  <g transform="translate(394,358)" stroke="#fff" stroke-width="1.6" fill="none" stroke-linecap="round">
    <ellipse cx="10" cy="5" rx="7.5" ry="2.8"/>
    <path d="M2.5,5 v11 a7.5,2.8 0 0 0 15,0 v-11"/>
    <path d="M2.5,10.5 a7.5,2.8 0 0 0 15,0"/>
    <circle cx="16.5" cy="16.5" r="4" fill="#2D9C6F"/>
    <path d="M16.5,14.2 v2.3 l1.6,1.1"/>
  </g>
  <text x="426" y="372" font-size="14" font-weight="700" fill="#fff">TimescaleDB</text>
  <text x="426" y="389" font-size="10.5" fill="#d8f1e6">Primary · Cloud</text>
  <rect x="392" y="398" width="204" height="24" rx="7" fill="#ffffff" fill-opacity="0.16"/>
  <text x="494" y="414" text-anchor="middle" font-size="10" font-weight="600" fill="#fff">데이터 적재 · Write (Hypertable)</text>
  <rect x="392" y="452" width="204" height="24" rx="7" fill="#7E57C2" stroke="#FF5A5F" stroke-width="1.8"/>
  <text x="494" y="468" text-anchor="middle" font-size="9.5" font-weight="600" fill="#fff">◆ Grafana Alloy · Prometheus</text>

  <!-- ============ Zone 3: On-Prem Internal ============ -->
  <!-- TimescaleDB Replica -->
  <g filter="url(#shadow)"><rect x="688" y="178" width="250" height="126" rx="12" fill="#3AA378" stroke="#FF5A5F" stroke-width="2.6"/></g>
  <rect x="892" y="169" width="44" height="18" rx="9" fill="#FF5A5F"/>
  <text x="914" y="182" text-anchor="middle" font-size="9" font-weight="700" fill="#fff">NEW</text>
  <g transform="translate(706,192)" stroke="#fff" stroke-width="1.6" fill="none" stroke-linecap="round">
    <ellipse cx="10" cy="5" rx="7.5" ry="2.8"/>
    <path d="M2.5,5 v11 a7.5,2.8 0 0 0 15,0 v-11"/>
    <path d="M2.5,10.5 a7.5,2.8 0 0 0 15,0"/>
  </g>
  <text x="738" y="208" font-size="15" font-weight="700" fill="#fff">TimescaleDB</text>
  <text x="738" y="225" font-size="11" fill="#e0f3ea">Replica · 복제본</text>
  <rect x="702" y="236" width="222" height="26" rx="7" fill="#ffffff" fill-opacity="0.18"/>
  <text x="813" y="253" text-anchor="middle" font-size="10.5" font-weight="600" fill="#fff">읽기 전용 · Read-only (Grafana)</text>
  <rect x="702" y="270" width="222" height="24" rx="7" fill="#ffffff" fill-opacity="0.18"/>
  <text x="813" y="286" text-anchor="middle" font-size="10" font-weight="600" fill="#fff">Streaming Replication 수신</text>

  <!-- VictoriaMetrics -->
  <g filter="url(#shadow)"><rect x="688" y="448" width="250" height="120" rx="12" fill="#7E57C2" stroke="#FF5A5F" stroke-width="2.6"/></g>
  <rect x="892" y="439" width="44" height="18" rx="9" fill="#FF5A5F"/>
  <text x="914" y="452" text-anchor="middle" font-size="9" font-weight="700" fill="#fff">NEW</text>
  <g transform="translate(706,464)" stroke="#fff" stroke-width="1.9" fill="none" stroke-linecap="round">
    <line x1="3" y1="20" x2="21" y2="20"/>
    <rect x="4" y="12" width="3.5" height="7" rx="1" fill="#fff" stroke="none"/>
    <rect x="10" y="6" width="3.5" height="13" rx="1" fill="#fff" stroke="none"/>
    <rect x="16" y="9" width="3.5" height="10" rx="1" fill="#fff" stroke="none"/>
  </g>
  <text x="738" y="480" font-size="15" font-weight="700" fill="#fff">VictoriaMetrics</text>
  <text x="738" y="499" font-size="11" fill="#e9e0f6">메트릭 저장 · Metrics TSDB</text>
  <rect x="702" y="512" width="222" height="26" rx="7" fill="#ffffff" fill-opacity="0.18"/>
  <text x="813" y="529" text-anchor="middle" font-size="10.5" font-weight="600" fill="#fff">Prometheus 호환 · 모니터링 저장소</text>

  <!-- Grafana #1 : Data dashboards -->
  <g filter="url(#shadow)"><rect x="966" y="184" width="148" height="120" rx="13" fill="#E8743B"/></g>
  <g transform="translate(1024,200)" stroke="#fff" stroke-width="2" fill="none" stroke-linecap="round" stroke-linejoin="round">
    <polyline points="3,21 3,3"/>
    <polyline points="3,21 23,21"/>
    <polyline points="6,16 11,10 15,13 22,5"/>
    <circle cx="11" cy="10" r="1.4" fill="#fff" stroke="none"/>
    <circle cx="15" cy="13" r="1.4" fill="#fff" stroke="none"/>
    <circle cx="22" cy="5" r="1.4" fill="#fff" stroke="none"/>
  </g>
  <text x="1040" y="254" text-anchor="middle" font-size="16" font-weight="700" fill="#fff">Grafana</text>
  <text x="1040" y="275" text-anchor="middle" font-size="10.5" fill="#fce0d3">데이터 대시보드</text>
  <text x="1040" y="292" text-anchor="middle" font-size="9.5" fill="#fad2bf">Data Dashboards</text>

  <!-- Grafana #2 : Monitoring + Alerts -->
  <g filter="url(#shadow)"><rect x="966" y="448" width="148" height="120" rx="13" fill="#E8743B" stroke="#FF5A5F" stroke-width="2.6"/></g>
  <rect x="1068" y="439" width="44" height="18" rx="9" fill="#FF5A5F"/>
  <text x="1090" y="452" text-anchor="middle" font-size="9" font-weight="700" fill="#fff">NEW</text>
  <g transform="translate(1024,464)" stroke="#fff" stroke-width="2" fill="none" stroke-linecap="round" stroke-linejoin="round">
    <polyline points="3,21 3,3"/>
    <polyline points="3,21 23,21"/>
    <polyline points="6,16 11,10 15,13 22,5"/>
    <circle cx="11" cy="10" r="1.4" fill="#fff" stroke="none"/>
    <circle cx="15" cy="13" r="1.4" fill="#fff" stroke="none"/>
    <circle cx="22" cy="5" r="1.4" fill="#fff" stroke="none"/>
  </g>
  <text x="1040" y="518" text-anchor="middle" font-size="16" font-weight="700" fill="#fff">Grafana</text>
  <text x="1040" y="539" text-anchor="middle" font-size="10.5" fill="#fce0d3">모니터링 · 알람</text>
  <text x="1040" y="556" text-anchor="middle" font-size="9.5" fill="#fad2bf">Monitoring · Alerts</text>

  <!-- ============ Zone 4: User / Admin ============ -->
  <g filter="url(#shadow)"><rect x="1184" y="184" width="242" height="120" rx="13" fill="#5D6D7E"/></g>
  <g transform="translate(1293,200)" fill="#fff">
    <circle cx="12" cy="8" r="4.8"/>
    <path d="M3,22 a9,8.5 0 0 1 18,0 z"/>
  </g>
  <text x="1305" y="256" text-anchor="middle" font-size="16" font-weight="700" fill="#fff">사용자</text>
  <text x="1305" y="277" text-anchor="middle" font-size="11" fill="#dfe4ea">User · Web Browser</text>
  <text x="1305" y="294" text-anchor="middle" font-size="10.5" fill="#cdd4dc">데이터 모니터링</text>

  <g filter="url(#shadow)"><rect x="1184" y="448" width="242" height="120" rx="13" fill="#6A5A7E"/></g>
  <g transform="translate(1293,464)" stroke="#fff" stroke-width="1.8" fill="none" stroke-linecap="round" stroke-linejoin="round">
    <circle cx="12" cy="12" r="3.6"/>
    <path d="M12,2.6 v3 M12,18.4 v3 M2.6,12 h3 M18.4,12 h3 M5.1,5.1 l2.1,2.1 M16.8,16.8 l2.1,2.1 M18.9,5.1 l-2.1,2.1 M7.2,16.8 l-2.1,2.1"/>
  </g>
  <text x="1305" y="520" text-anchor="middle" font-size="16" font-weight="700" fill="#fff">관리자</text>
  <text x="1305" y="541" text-anchor="middle" font-size="11" fill="#e2dcea">Admin</text>
  <text x="1305" y="558" text-anchor="middle" font-size="10.5" fill="#cfc7da">대시보드 · 알람 수신</text>

  <!-- ============ Data-flow arrows ============ -->
  <path d="M109,272 V366 Q109,378 121,378 H153 Q165,378 165,390 V400" fill="none" stroke="#5b6470" stroke-width="2.2" marker-end="url(#arrow)"/>
  <path d="M247,272 V366 Q247,378 235,378 H200 Q188,378 188,390 V400" fill="none" stroke="#5b6470" stroke-width="2.2" marker-end="url(#arrow)"/>

  <!-- Edge -> PgBouncer wrapper (write) -->
  <path d="M304,452 H334 Q346,452 346,440 V413 Q346,401 358,401" fill="none" stroke="#5b6470" stroke-width="2.4" marker-end="url(#arrow)"/>
  <text x="332" y="426" text-anchor="middle" font-size="10.5" font-weight="600" fill="#56606c">적재 write</text>

  <!-- Primary -> Replica (Streaming Replication) -->
  <path d="M630,400 H636 Q648,400 648,388 V264 Q648,252 660,252 H688" fill="none" stroke="#2D9C6F" stroke-width="2.6" marker-end="url(#arrowGreen)"/>
  <text x="636" y="338" text-anchor="middle" font-size="11" font-weight="700" fill="#2D9C6F">Streaming</text>
  <text x="636" y="352" text-anchor="middle" font-size="11" font-weight="700" fill="#2D9C6F">Replication</text>

  <!-- Replica -> Grafana #1 (read) -->
  <path d="M938,244 L964,244" fill="none" stroke="#E8743B" stroke-width="2.2" marker-end="url(#arrowAccent)"/>
  <text x="951" y="236" text-anchor="middle" font-size="10.5" font-weight="600" fill="#c5612e">Read</text>

  <!-- VictoriaMetrics -> Grafana #2 (metrics) -->
  <path d="M938,508 L964,508" fill="none" stroke="#E8743B" stroke-width="2.2" marker-end="url(#arrowAccent)"/>
  <text x="951" y="500" text-anchor="middle" font-size="10.5" font-weight="600" fill="#c5612e">Metrics</text>

  <!-- Grafana #1 -> User -->
  <path d="M1114,244 L1182,244" fill="none" stroke="#5b6470" stroke-width="2.4" marker-end="url(#arrow)"/>
  <text x="1148" y="236" text-anchor="middle" font-size="10.5" font-weight="600" fill="#56606c">대시보드 제공</text>

  <!-- Grafana #2 -> Admin -->
  <path d="M1114,508 L1182,508" fill="none" stroke="#5b6470" stroke-width="2.4" marker-end="url(#arrow)"/>
  <text x="1148" y="500" text-anchor="middle" font-size="10.5" font-weight="600" fill="#56606c">대시보드 · 알람</text>

  <!-- ============ Monitoring arrows (dashed) ============ -->
  <!-- Edge Alloy -> VictoriaMetrics -->
  <path d="M304,519 L686,519" fill="none" stroke="#7E57C2" stroke-width="2.2" stroke-dasharray="7 4" marker-end="url(#arrowMon)"/>
  <text x="468" y="537" text-anchor="middle" font-size="10.5" font-weight="600" fill="#6A4399">Prometheus metrics</text>

  <!-- Primary Alloy -> VictoriaMetrics -->
  <path d="M596,464 H664 Q676,464 676,476 V478 Q676,490 688,490" fill="none" stroke="#7E57C2" stroke-width="2.2" stroke-dasharray="7 4" marker-end="url(#arrowMon)"/>
  <text x="648" y="460" text-anchor="middle" font-size="10.5" font-weight="600" fill="#6A4399">metrics</text>

  <!-- ============ Legend ============ -->
  <line x1="430" y1="772" x2="470" y2="772" stroke="#5b6470" stroke-width="2.4" marker-end="url(#arrow)"/>
  <text x="478" y="776" font-size="11.5" fill="#56606c">데이터 흐름 · Data flow</text>
  <line x1="650" y1="772" x2="690" y2="772" stroke="#2D9C6F" stroke-width="2.6" marker-end="url(#arrowGreen)"/>
  <text x="698" y="776" font-size="11.5" fill="#2D9C6F">Streaming Replication</text>
  <line x1="888" y1="772" x2="928" y2="772" stroke="#7E57C2" stroke-width="2.2" stroke-dasharray="7 4" marker-end="url(#arrowMon)"/>
  <text x="936" y="776" font-size="11.5" fill="#6A4399">모니터링 (Prometheus) · Monitoring</text>
  <rect x="1148" y="764" width="30" height="15" rx="7" fill="#FF5A5F"/>
  <text x="1163" y="775" text-anchor="middle" font-size="8.5" font-weight="700" fill="#fff">NEW</text>
  <text x="1186" y="776" font-size="11.5" fill="#D63A40">2년차 신규</text>
</svg>
